<mxfile host="app.diagrams.net" agent="Mozilla/5.0 (X11; Linux x86_64) AppleWebKit/537.36 (KHTML, like Gecko) Chrome/134.0.0.0 Safari/537.36" version="26.1.1">
  <diagram name="Página-1" id="ZnCiejUlVyUirBSkLOqF">
    <mxGraphModel dx="850" dy="596" grid="1" gridSize="10" guides="1" tooltips="1" connect="1" arrows="1" fold="1" page="1" pageScale="1" pageWidth="827" pageHeight="1169" math="0" shadow="0">
      <root>
        <mxCell id="0" />
        <mxCell id="1" parent="0" />
        <mxCell id="Zxhcvmnf_Hf1wCd1HVQ5-1" value="" style="ellipse;whiteSpace=wrap;html=1;container=0;" vertex="1" parent="1">
          <mxGeometry x="430" y="40" width="120" height="80" as="geometry" />
        </mxCell>
        <mxCell id="Zxhcvmnf_Hf1wCd1HVQ5-2" value="início/fim" style="text;strokeColor=none;align=center;fillColor=none;html=1;verticalAlign=middle;whiteSpace=wrap;rounded=0;fontSize=33;container=0;" vertex="1" parent="1">
          <mxGeometry x="570" y="65" width="170" height="30" as="geometry" />
        </mxCell>
        <mxCell id="Zxhcvmnf_Hf1wCd1HVQ5-8" value="" style="rounded=0;whiteSpace=wrap;html=1;" vertex="1" parent="1">
          <mxGeometry x="430" y="150" width="120" height="60" as="geometry" />
        </mxCell>
        <mxCell id="Zxhcvmnf_Hf1wCd1HVQ5-9" value="ações/processos" style="text;strokeColor=none;align=center;fillColor=none;html=1;verticalAlign=middle;whiteSpace=wrap;rounded=0;fontSize=33;container=0;" vertex="1" parent="1">
          <mxGeometry x="557" y="165" width="270" height="30" as="geometry" />
        </mxCell>
        <mxCell id="Zxhcvmnf_Hf1wCd1HVQ5-10" value="" style="rhombus;whiteSpace=wrap;html=1;" vertex="1" parent="1">
          <mxGeometry x="430" y="240" width="120" height="110" as="geometry" />
        </mxCell>
        <mxCell id="Zxhcvmnf_Hf1wCd1HVQ5-11" value="decisões" style="text;strokeColor=none;align=center;fillColor=none;html=1;verticalAlign=middle;whiteSpace=wrap;rounded=0;fontSize=33;container=0;" vertex="1" parent="1">
          <mxGeometry x="570" y="280" width="160" height="30" as="geometry" />
        </mxCell>
        <mxCell id="Zxhcvmnf_Hf1wCd1HVQ5-12" value="" style="shape=parallelogram;perimeter=parallelogramPerimeter;whiteSpace=wrap;html=1;fixedSize=1;" vertex="1" parent="1">
          <mxGeometry x="430" y="390" width="120" height="60" as="geometry" />
        </mxCell>
        <mxCell id="Zxhcvmnf_Hf1wCd1HVQ5-13" value="entrada/saída&lt;div&gt;de dados&lt;/div&gt;" style="text;strokeColor=none;align=center;fillColor=none;html=1;verticalAlign=middle;whiteSpace=wrap;rounded=0;fontSize=33;container=0;" vertex="1" parent="1">
          <mxGeometry x="570" y="385" width="225" height="70" as="geometry" />
        </mxCell>
        <mxCell id="Zxhcvmnf_Hf1wCd1HVQ5-14" value="" style="shape=flexArrow;endArrow=classic;html=1;rounded=0;" edge="1" parent="1">
          <mxGeometry width="50" height="50" relative="1" as="geometry">
            <mxPoint x="435" y="520" as="sourcePoint" />
            <mxPoint x="545" y="520" as="targetPoint" />
          </mxGeometry>
        </mxCell>
        <mxCell id="Zxhcvmnf_Hf1wCd1HVQ5-15" value="conexões entre ícones" style="text;strokeColor=none;align=center;fillColor=none;html=1;verticalAlign=middle;whiteSpace=wrap;rounded=0;fontSize=33;container=0;" vertex="1" parent="1">
          <mxGeometry x="579.5" y="490" width="225" height="70" as="geometry" />
        </mxCell>
      </root>
    </mxGraphModel>
  </diagram>
</mxfile>
